# xmcd CD database file
# Copyright (C) 1993-1998 Ti Kan
#
# Track frame offsets:
#  150
#  15280
#  28907
#  40037
#  59975
#  66325
#  90067
#  100370
#  117727
#  126067
#  150717
#  166142
#
# Disc length: 2457 seconds
#
# Revision: 1
# Processed by: cddbd v1.4b41PL1 Copyright (c) Steve Scherf et al.
# Submitted via: CDWizzard Release:4.35
#
DISCID=9a09970c
DTITLE=Jai Jai Noire - pounding the BOX
DYEAR=1900
DGENRE=
TTITLE0=little pill
TTITLE1=thistles
TTITLE2=red rose petals
TTITLE3=strip and dance
TTITLE4=lucky me
TTITLE5=montreal
TTITLE6=passing
TTITLE7=jackson pollack
TTITLE8=allez! (go!)
TTITLE9=fingerprint
TTITLE10=transmission
TTITLE11=strawberry girl
EXTD=
EXTT0=
EXTT1=
EXTT2=
EXTT3=
EXTT4=
EXTT5=
EXTT6=
EXTT7=
EXTT8=
EXTT9=
EXTT10=
EXTT11=
PLAYORDER=
